<?xml version="1.0" encoding="UTF-8" standalone="no"?>
<!DOCTYPE svg PUBLIC "-//W3C//DTD SVG 1.1//EN" "http://www.w3.org/Graphics/SVG/1.1/DTD/svg11.dtd">
<svg width="100%" height="100%" viewBox="0 0 820 820" version="1.1" xmlns="http://www.w3.org/2000/svg" xmlns:xlink="http://www.w3.org/1999/xlink" xml:space="preserve" xmlns:serif="http://www.serif.com/" style="fill-rule:evenodd;clip-rule:evenodd;stroke-linecap:round;stroke-linejoin:round;">
    <g transform="matrix(1,0,0,1,-102,-102)">
        <path d="M922,285.434L922,738.566C922,839.806 839.806,922 738.566,922L285.434,922C184.194,922 102,839.806 102,738.566L102,285.434C102,184.194 184.194,102 285.434,102L738.566,102C839.806,102 922,184.194 922,285.434Z" style="fill:url(#_Linear1);"/>
        <g transform="matrix(26.313238,0,0,26.313238,-22386.111381,-9095.302329)">
            <g transform="matrix(1,0,0,1,857.713561,353.112456)">
                <path d="M18,5L22,5" style="fill:none;fill-rule:nonzero;stroke:white;stroke-opacity:0.6;stroke-width:2px;"/>
            </g>
            <g transform="matrix(1,0,0,1,857.713561,353.112456)">
                <path d="M20,3L20,7" style="fill:none;fill-rule:nonzero;stroke:white;stroke-opacity:0.6;stroke-width:2px;"/>
            </g>
            <g transform="matrix(1,0,0,1,857.713561,353.112456)">
                <path d="M20.985,12.486C20.729,17.233 16.752,21.001 11.998,21.001C7.061,21.001 2.998,16.938 2.998,12.001C2.998,7.247 6.765,3.271 11.512,3.014C11.917,2.992 12.129,3.474 11.914,3.817C11.318,4.771 11.002,5.873 11.002,6.997C11.002,10.289 13.71,12.997 17.002,12.997C18.126,12.997 19.228,12.681 20.182,12.085C20.526,11.87 21.007,12.081 20.985,12.486" style="fill:none;fill-rule:nonzero;stroke:white;stroke-opacity:0.6;stroke-width:2px;"/>
            </g>
        </g>
    </g>
    <defs>
        <linearGradient id="_Linear1" x1="0" y1="0" x2="1" y2="0" gradientUnits="userSpaceOnUse" gradientTransform="matrix(820,0,0,820,102,512)"><stop offset="0" style="stop-color:rgb(29,90,153);stop-opacity:1"/><stop offset="1" style="stop-color:rgb(28,46,96);stop-opacity:1"/></linearGradient>
    </defs>
</svg>
